%FSLAX45Y45*%
G04 Gerber Fmt 4.5, Leading zero omitted, Abs format (unit mm)*
G04 Created by KiCad (PCBNEW 4.0.7) date 10/19/17 13:31:11*
%MOMM*%
%LPD*%
G01*
G04 APERTURE LIST*
%ADD10C,0.127000*%
%ADD11C,0.150000*%
%ADD12C,0.200000*%
%ADD13C,0.300000*%
G04 APERTURE END LIST*
D10*
D11*
X11430000Y-9334500D02*
X11874500Y-9334500D01*
X11430000Y-12827000D02*
X11430000Y-9334500D01*
X17526000Y-12827000D02*
X11430000Y-12827000D01*
X17526000Y-9334500D02*
X17526000Y-12827000D01*
X11874500Y-9334500D02*
X17526000Y-9334500D01*
D12*
X12523000Y-10681500D02*
X12623000Y-10781500D01*
X12623000Y-10681500D02*
X12523000Y-10781500D01*
X12713500Y-11761000D02*
X12813500Y-11861000D01*
X12813500Y-11761000D02*
X12713500Y-11861000D01*
X12967500Y-11761000D02*
X13067500Y-11861000D01*
X13067500Y-11761000D02*
X12967500Y-11861000D01*
X13221500Y-11761000D02*
X13321500Y-11861000D01*
X13321500Y-11761000D02*
X13221500Y-11861000D01*
X13412000Y-10681500D02*
X13512000Y-10781500D01*
X13512000Y-10681500D02*
X13412000Y-10781500D01*
X14809000Y-10681500D02*
X14909000Y-10781500D01*
X14909000Y-10681500D02*
X14809000Y-10781500D01*
X14809000Y-10935500D02*
X14909000Y-11035500D01*
X14909000Y-10935500D02*
X14809000Y-11035500D01*
X14809000Y-11189500D02*
X14909000Y-11289500D01*
X14909000Y-11189500D02*
X14809000Y-11289500D01*
X16633444Y-10731500D02*
G75*
G03X16633444Y-10731500I-59944J0D01*
G01*
X16633444Y-11811000D02*
G75*
G03X16633444Y-11811000I-59944J0D01*
G01*
D13*
X11693928Y-13300214D02*
X11693928Y-13000214D01*
X11765357Y-13000214D01*
X11808214Y-13014500D01*
X11836786Y-13043071D01*
X11851071Y-13071643D01*
X11865357Y-13128786D01*
X11865357Y-13171643D01*
X11851071Y-13228786D01*
X11836786Y-13257357D01*
X11808214Y-13285929D01*
X11765357Y-13300214D01*
X11693928Y-13300214D01*
X11993928Y-13300214D02*
X11993928Y-13100214D01*
X11993928Y-13157357D02*
X12008214Y-13128786D01*
X12022500Y-13114500D01*
X12051071Y-13100214D01*
X12079643Y-13100214D01*
X12179643Y-13300214D02*
X12179643Y-13100214D01*
X12179643Y-13000214D02*
X12165357Y-13014500D01*
X12179643Y-13028786D01*
X12193928Y-13014500D01*
X12179643Y-13000214D01*
X12179643Y-13028786D01*
X12365357Y-13300214D02*
X12336786Y-13285929D01*
X12322500Y-13257357D01*
X12322500Y-13000214D01*
X12522500Y-13300214D02*
X12493928Y-13285929D01*
X12479643Y-13257357D01*
X12479643Y-13000214D01*
X12865357Y-13300214D02*
X12865357Y-13000214D01*
X12965357Y-13214500D01*
X13065357Y-13000214D01*
X13065357Y-13300214D01*
X13336786Y-13300214D02*
X13336786Y-13143071D01*
X13322500Y-13114500D01*
X13293928Y-13100214D01*
X13236786Y-13100214D01*
X13208214Y-13114500D01*
X13336786Y-13285929D02*
X13308214Y-13300214D01*
X13236786Y-13300214D01*
X13208214Y-13285929D01*
X13193928Y-13257357D01*
X13193928Y-13228786D01*
X13208214Y-13200214D01*
X13236786Y-13185929D01*
X13308214Y-13185929D01*
X13336786Y-13171643D01*
X13479643Y-13100214D02*
X13479643Y-13400214D01*
X13479643Y-13114500D02*
X13508214Y-13100214D01*
X13565357Y-13100214D01*
X13593928Y-13114500D01*
X13608214Y-13128786D01*
X13622500Y-13157357D01*
X13622500Y-13243071D01*
X13608214Y-13271643D01*
X13593928Y-13285929D01*
X13565357Y-13300214D01*
X13508214Y-13300214D01*
X13479643Y-13285929D01*
X13751071Y-13271643D02*
X13765357Y-13285929D01*
X13751071Y-13300214D01*
X13736786Y-13285929D01*
X13751071Y-13271643D01*
X13751071Y-13300214D01*
X13751071Y-13114500D02*
X13765357Y-13128786D01*
X13751071Y-13143071D01*
X13736786Y-13128786D01*
X13751071Y-13114500D01*
X13751071Y-13143071D01*
X11322500Y-13744500D02*
X11422500Y-13844500D01*
X11422500Y-13744500D02*
X11322500Y-13844500D01*
X11851071Y-13930214D02*
X11679643Y-13930214D01*
X11765357Y-13930214D02*
X11765357Y-13630214D01*
X11736786Y-13673071D01*
X11708214Y-13701643D01*
X11679643Y-13715929D01*
X11979643Y-13901643D02*
X11993928Y-13915929D01*
X11979643Y-13930214D01*
X11965357Y-13915929D01*
X11979643Y-13901643D01*
X11979643Y-13930214D01*
X12179643Y-13630214D02*
X12208214Y-13630214D01*
X12236786Y-13644500D01*
X12251071Y-13658786D01*
X12265357Y-13687357D01*
X12279643Y-13744500D01*
X12279643Y-13815929D01*
X12265357Y-13873071D01*
X12251071Y-13901643D01*
X12236786Y-13915929D01*
X12208214Y-13930214D01*
X12179643Y-13930214D01*
X12151071Y-13915929D01*
X12136786Y-13901643D01*
X12122500Y-13873071D01*
X12108214Y-13815929D01*
X12108214Y-13744500D01*
X12122500Y-13687357D01*
X12136786Y-13658786D01*
X12151071Y-13644500D01*
X12179643Y-13630214D01*
X12465357Y-13630214D02*
X12493928Y-13630214D01*
X12522500Y-13644500D01*
X12536786Y-13658786D01*
X12551071Y-13687357D01*
X12565357Y-13744500D01*
X12565357Y-13815929D01*
X12551071Y-13873071D01*
X12536786Y-13901643D01*
X12522500Y-13915929D01*
X12493928Y-13930214D01*
X12465357Y-13930214D01*
X12436786Y-13915929D01*
X12422500Y-13901643D01*
X12408214Y-13873071D01*
X12393928Y-13815929D01*
X12393928Y-13744500D01*
X12408214Y-13687357D01*
X12422500Y-13658786D01*
X12436786Y-13644500D01*
X12465357Y-13630214D01*
X12693928Y-13930214D02*
X12693928Y-13730214D01*
X12693928Y-13758786D02*
X12708214Y-13744500D01*
X12736786Y-13730214D01*
X12779643Y-13730214D01*
X12808214Y-13744500D01*
X12822500Y-13773071D01*
X12822500Y-13930214D01*
X12822500Y-13773071D02*
X12836786Y-13744500D01*
X12865357Y-13730214D01*
X12908214Y-13730214D01*
X12936786Y-13744500D01*
X12951071Y-13773071D01*
X12951071Y-13930214D01*
X13093928Y-13930214D02*
X13093928Y-13730214D01*
X13093928Y-13758786D02*
X13108214Y-13744500D01*
X13136786Y-13730214D01*
X13179643Y-13730214D01*
X13208214Y-13744500D01*
X13222500Y-13773071D01*
X13222500Y-13930214D01*
X13222500Y-13773071D02*
X13236786Y-13744500D01*
X13265357Y-13730214D01*
X13308214Y-13730214D01*
X13336786Y-13744500D01*
X13351071Y-13773071D01*
X13351071Y-13930214D01*
X13936786Y-13615929D02*
X13679643Y-14001643D01*
X14322500Y-13630214D02*
X14351071Y-13630214D01*
X14379643Y-13644500D01*
X14393928Y-13658786D01*
X14408214Y-13687357D01*
X14422500Y-13744500D01*
X14422500Y-13815929D01*
X14408214Y-13873071D01*
X14393928Y-13901643D01*
X14379643Y-13915929D01*
X14351071Y-13930214D01*
X14322500Y-13930214D01*
X14293928Y-13915929D01*
X14279643Y-13901643D01*
X14265357Y-13873071D01*
X14251071Y-13815929D01*
X14251071Y-13744500D01*
X14265357Y-13687357D01*
X14279643Y-13658786D01*
X14293928Y-13644500D01*
X14322500Y-13630214D01*
X14551071Y-13901643D02*
X14565357Y-13915929D01*
X14551071Y-13930214D01*
X14536786Y-13915929D01*
X14551071Y-13901643D01*
X14551071Y-13930214D01*
X14751071Y-13630214D02*
X14779643Y-13630214D01*
X14808214Y-13644500D01*
X14822500Y-13658786D01*
X14836785Y-13687357D01*
X14851071Y-13744500D01*
X14851071Y-13815929D01*
X14836785Y-13873071D01*
X14822500Y-13901643D01*
X14808214Y-13915929D01*
X14779643Y-13930214D01*
X14751071Y-13930214D01*
X14722500Y-13915929D01*
X14708214Y-13901643D01*
X14693928Y-13873071D01*
X14679643Y-13815929D01*
X14679643Y-13744500D01*
X14693928Y-13687357D01*
X14708214Y-13658786D01*
X14722500Y-13644500D01*
X14751071Y-13630214D01*
X14951071Y-13630214D02*
X15136785Y-13630214D01*
X15036785Y-13744500D01*
X15079643Y-13744500D01*
X15108214Y-13758786D01*
X15122500Y-13773071D01*
X15136785Y-13801643D01*
X15136785Y-13873071D01*
X15122500Y-13901643D01*
X15108214Y-13915929D01*
X15079643Y-13930214D01*
X14993928Y-13930214D01*
X14965357Y-13915929D01*
X14951071Y-13901643D01*
X15279643Y-13930214D02*
X15336785Y-13930214D01*
X15365357Y-13915929D01*
X15379643Y-13901643D01*
X15408214Y-13858786D01*
X15422500Y-13801643D01*
X15422500Y-13687357D01*
X15408214Y-13658786D01*
X15393928Y-13644500D01*
X15365357Y-13630214D01*
X15308214Y-13630214D01*
X15279643Y-13644500D01*
X15265357Y-13658786D01*
X15251071Y-13687357D01*
X15251071Y-13758786D01*
X15265357Y-13787357D01*
X15279643Y-13801643D01*
X15308214Y-13815929D01*
X15365357Y-13815929D01*
X15393928Y-13801643D01*
X15408214Y-13787357D01*
X15422500Y-13758786D01*
X15536786Y-13630214D02*
X15536786Y-13687357D01*
X15651071Y-13630214D02*
X15651071Y-13687357D01*
X16093928Y-14044500D02*
X16079643Y-14030214D01*
X16051071Y-13987357D01*
X16036785Y-13958786D01*
X16022500Y-13915929D01*
X16008214Y-13844500D01*
X16008214Y-13787357D01*
X16022500Y-13715929D01*
X16036785Y-13673071D01*
X16051071Y-13644500D01*
X16079643Y-13601643D01*
X16093928Y-13587357D01*
X16251071Y-13758786D02*
X16222500Y-13744500D01*
X16208214Y-13730214D01*
X16193928Y-13701643D01*
X16193928Y-13687357D01*
X16208214Y-13658786D01*
X16222500Y-13644500D01*
X16251071Y-13630214D01*
X16308214Y-13630214D01*
X16336785Y-13644500D01*
X16351071Y-13658786D01*
X16365357Y-13687357D01*
X16365357Y-13701643D01*
X16351071Y-13730214D01*
X16336785Y-13744500D01*
X16308214Y-13758786D01*
X16251071Y-13758786D01*
X16222500Y-13773071D01*
X16208214Y-13787357D01*
X16193928Y-13815929D01*
X16193928Y-13873071D01*
X16208214Y-13901643D01*
X16222500Y-13915929D01*
X16251071Y-13930214D01*
X16308214Y-13930214D01*
X16336785Y-13915929D01*
X16351071Y-13901643D01*
X16365357Y-13873071D01*
X16365357Y-13815929D01*
X16351071Y-13787357D01*
X16336785Y-13773071D01*
X16308214Y-13758786D01*
X16722500Y-13930214D02*
X16722500Y-13630214D01*
X16851071Y-13930214D02*
X16851071Y-13773071D01*
X16836786Y-13744500D01*
X16808214Y-13730214D01*
X16765357Y-13730214D01*
X16736785Y-13744500D01*
X16722500Y-13758786D01*
X17036786Y-13930214D02*
X17008214Y-13915929D01*
X16993928Y-13901643D01*
X16979643Y-13873071D01*
X16979643Y-13787357D01*
X16993928Y-13758786D01*
X17008214Y-13744500D01*
X17036786Y-13730214D01*
X17079643Y-13730214D01*
X17108214Y-13744500D01*
X17122500Y-13758786D01*
X17136786Y-13787357D01*
X17136786Y-13873071D01*
X17122500Y-13901643D01*
X17108214Y-13915929D01*
X17079643Y-13930214D01*
X17036786Y-13930214D01*
X17308214Y-13930214D02*
X17279643Y-13915929D01*
X17265357Y-13887357D01*
X17265357Y-13630214D01*
X17536786Y-13915929D02*
X17508214Y-13930214D01*
X17451071Y-13930214D01*
X17422500Y-13915929D01*
X17408214Y-13887357D01*
X17408214Y-13773071D01*
X17422500Y-13744500D01*
X17451071Y-13730214D01*
X17508214Y-13730214D01*
X17536786Y-13744500D01*
X17551071Y-13773071D01*
X17551071Y-13801643D01*
X17408214Y-13830214D01*
X17665357Y-13915929D02*
X17693929Y-13930214D01*
X17751071Y-13930214D01*
X17779643Y-13915929D01*
X17793929Y-13887357D01*
X17793929Y-13873071D01*
X17779643Y-13844500D01*
X17751071Y-13830214D01*
X17708214Y-13830214D01*
X17679643Y-13815929D01*
X17665357Y-13787357D01*
X17665357Y-13773071D01*
X17679643Y-13744500D01*
X17708214Y-13730214D01*
X17751071Y-13730214D01*
X17779643Y-13744500D01*
X17893928Y-14044500D02*
X17908214Y-14030214D01*
X17936786Y-13987357D01*
X17951071Y-13958786D01*
X17965357Y-13915929D01*
X17979643Y-13844500D01*
X17979643Y-13787357D01*
X17965357Y-13715929D01*
X17951071Y-13673071D01*
X17936786Y-13644500D01*
X17908214Y-13601643D01*
X17893928Y-13587357D01*
X11422500Y-14190500D02*
G75*
G03X11422500Y-14190500I-59944J0D01*
G01*
X11851071Y-14326214D02*
X11679643Y-14326214D01*
X11765357Y-14326214D02*
X11765357Y-14026214D01*
X11736786Y-14069071D01*
X11708214Y-14097643D01*
X11679643Y-14111929D01*
X11979643Y-14297643D02*
X11993928Y-14311929D01*
X11979643Y-14326214D01*
X11965357Y-14311929D01*
X11979643Y-14297643D01*
X11979643Y-14326214D01*
X12108214Y-14054786D02*
X12122500Y-14040500D01*
X12151071Y-14026214D01*
X12222500Y-14026214D01*
X12251071Y-14040500D01*
X12265357Y-14054786D01*
X12279643Y-14083357D01*
X12279643Y-14111929D01*
X12265357Y-14154786D01*
X12093928Y-14326214D01*
X12279643Y-14326214D01*
X12465357Y-14026214D02*
X12493928Y-14026214D01*
X12522500Y-14040500D01*
X12536786Y-14054786D01*
X12551071Y-14083357D01*
X12565357Y-14140500D01*
X12565357Y-14211929D01*
X12551071Y-14269071D01*
X12536786Y-14297643D01*
X12522500Y-14311929D01*
X12493928Y-14326214D01*
X12465357Y-14326214D01*
X12436786Y-14311929D01*
X12422500Y-14297643D01*
X12408214Y-14269071D01*
X12393928Y-14211929D01*
X12393928Y-14140500D01*
X12408214Y-14083357D01*
X12422500Y-14054786D01*
X12436786Y-14040500D01*
X12465357Y-14026214D01*
X12693928Y-14326214D02*
X12693928Y-14126214D01*
X12693928Y-14154786D02*
X12708214Y-14140500D01*
X12736786Y-14126214D01*
X12779643Y-14126214D01*
X12808214Y-14140500D01*
X12822500Y-14169071D01*
X12822500Y-14326214D01*
X12822500Y-14169071D02*
X12836786Y-14140500D01*
X12865357Y-14126214D01*
X12908214Y-14126214D01*
X12936786Y-14140500D01*
X12951071Y-14169071D01*
X12951071Y-14326214D01*
X13093928Y-14326214D02*
X13093928Y-14126214D01*
X13093928Y-14154786D02*
X13108214Y-14140500D01*
X13136786Y-14126214D01*
X13179643Y-14126214D01*
X13208214Y-14140500D01*
X13222500Y-14169071D01*
X13222500Y-14326214D01*
X13222500Y-14169071D02*
X13236786Y-14140500D01*
X13265357Y-14126214D01*
X13308214Y-14126214D01*
X13336786Y-14140500D01*
X13351071Y-14169071D01*
X13351071Y-14326214D01*
X13936786Y-14011929D02*
X13679643Y-14397643D01*
X14322500Y-14026214D02*
X14351071Y-14026214D01*
X14379643Y-14040500D01*
X14393928Y-14054786D01*
X14408214Y-14083357D01*
X14422500Y-14140500D01*
X14422500Y-14211929D01*
X14408214Y-14269071D01*
X14393928Y-14297643D01*
X14379643Y-14311929D01*
X14351071Y-14326214D01*
X14322500Y-14326214D01*
X14293928Y-14311929D01*
X14279643Y-14297643D01*
X14265357Y-14269071D01*
X14251071Y-14211929D01*
X14251071Y-14140500D01*
X14265357Y-14083357D01*
X14279643Y-14054786D01*
X14293928Y-14040500D01*
X14322500Y-14026214D01*
X14551071Y-14297643D02*
X14565357Y-14311929D01*
X14551071Y-14326214D01*
X14536786Y-14311929D01*
X14551071Y-14297643D01*
X14551071Y-14326214D01*
X14751071Y-14026214D02*
X14779643Y-14026214D01*
X14808214Y-14040500D01*
X14822500Y-14054786D01*
X14836785Y-14083357D01*
X14851071Y-14140500D01*
X14851071Y-14211929D01*
X14836785Y-14269071D01*
X14822500Y-14297643D01*
X14808214Y-14311929D01*
X14779643Y-14326214D01*
X14751071Y-14326214D01*
X14722500Y-14311929D01*
X14708214Y-14297643D01*
X14693928Y-14269071D01*
X14679643Y-14211929D01*
X14679643Y-14140500D01*
X14693928Y-14083357D01*
X14708214Y-14054786D01*
X14722500Y-14040500D01*
X14751071Y-14026214D01*
X15108214Y-14126214D02*
X15108214Y-14326214D01*
X15036785Y-14011929D02*
X14965357Y-14226214D01*
X15151071Y-14226214D01*
X15236785Y-14026214D02*
X15436785Y-14026214D01*
X15308214Y-14326214D01*
X15536786Y-14026214D02*
X15536786Y-14083357D01*
X15651071Y-14026214D02*
X15651071Y-14083357D01*
X16093928Y-14440500D02*
X16079643Y-14426214D01*
X16051071Y-14383357D01*
X16036785Y-14354786D01*
X16022500Y-14311929D01*
X16008214Y-14240500D01*
X16008214Y-14183357D01*
X16022500Y-14111929D01*
X16036785Y-14069071D01*
X16051071Y-14040500D01*
X16079643Y-13997643D01*
X16093928Y-13983357D01*
X16193928Y-14054786D02*
X16208214Y-14040500D01*
X16236785Y-14026214D01*
X16308214Y-14026214D01*
X16336785Y-14040500D01*
X16351071Y-14054786D01*
X16365357Y-14083357D01*
X16365357Y-14111929D01*
X16351071Y-14154786D01*
X16179643Y-14326214D01*
X16365357Y-14326214D01*
X16722500Y-14326214D02*
X16722500Y-14026214D01*
X16851071Y-14326214D02*
X16851071Y-14169071D01*
X16836786Y-14140500D01*
X16808214Y-14126214D01*
X16765357Y-14126214D01*
X16736785Y-14140500D01*
X16722500Y-14154786D01*
X17036786Y-14326214D02*
X17008214Y-14311929D01*
X16993928Y-14297643D01*
X16979643Y-14269071D01*
X16979643Y-14183357D01*
X16993928Y-14154786D01*
X17008214Y-14140500D01*
X17036786Y-14126214D01*
X17079643Y-14126214D01*
X17108214Y-14140500D01*
X17122500Y-14154786D01*
X17136786Y-14183357D01*
X17136786Y-14269071D01*
X17122500Y-14297643D01*
X17108214Y-14311929D01*
X17079643Y-14326214D01*
X17036786Y-14326214D01*
X17308214Y-14326214D02*
X17279643Y-14311929D01*
X17265357Y-14283357D01*
X17265357Y-14026214D01*
X17536786Y-14311929D02*
X17508214Y-14326214D01*
X17451071Y-14326214D01*
X17422500Y-14311929D01*
X17408214Y-14283357D01*
X17408214Y-14169071D01*
X17422500Y-14140500D01*
X17451071Y-14126214D01*
X17508214Y-14126214D01*
X17536786Y-14140500D01*
X17551071Y-14169071D01*
X17551071Y-14197643D01*
X17408214Y-14226214D01*
X17665357Y-14311929D02*
X17693929Y-14326214D01*
X17751071Y-14326214D01*
X17779643Y-14311929D01*
X17793929Y-14283357D01*
X17793929Y-14269071D01*
X17779643Y-14240500D01*
X17751071Y-14226214D01*
X17708214Y-14226214D01*
X17679643Y-14211929D01*
X17665357Y-14183357D01*
X17665357Y-14169071D01*
X17679643Y-14140500D01*
X17708214Y-14126214D01*
X17751071Y-14126214D01*
X17779643Y-14140500D01*
X17893928Y-14440500D02*
X17908214Y-14426214D01*
X17936786Y-14383357D01*
X17951071Y-14354786D01*
X17965357Y-14311929D01*
X17979643Y-14240500D01*
X17979643Y-14183357D01*
X17965357Y-14111929D01*
X17951071Y-14069071D01*
X17936786Y-14040500D01*
X17908214Y-13997643D01*
X17893928Y-13983357D01*
M02*
