G04 #@! TF.FileFunction,Legend,Top*
%FSLAX46Y46*%
G04 Gerber Fmt 4.6, Leading zero omitted, Abs format (unit mm)*
G04 Created by KiCad (PCBNEW 4.0.7) date 10/19/17 13:31:13*
%MOMM*%
%LPD*%
G01*
G04 APERTURE LIST*
%ADD10C,0.100000*%
%ADD11C,0.300000*%
%ADD12C,0.120000*%
%ADD13C,0.150000*%
G04 APERTURE END LIST*
D10*
D11*
X161968571Y-122158392D02*
X160468571Y-121970892D01*
X160468571Y-121613749D01*
X160540000Y-121408393D01*
X160682857Y-121283392D01*
X160825714Y-121229821D01*
X161111429Y-121194107D01*
X161325714Y-121220892D01*
X161611429Y-121328036D01*
X161754286Y-121417321D01*
X161897143Y-121578036D01*
X161968571Y-121801249D01*
X161968571Y-122158392D01*
X161825714Y-119783392D02*
X161897143Y-119863750D01*
X161968571Y-120086964D01*
X161968571Y-120229821D01*
X161897143Y-120435178D01*
X161754286Y-120560179D01*
X161611429Y-120613750D01*
X161325714Y-120649464D01*
X161111429Y-120622679D01*
X160825714Y-120515535D01*
X160682857Y-120426250D01*
X160540000Y-120265535D01*
X160468571Y-120042321D01*
X160468571Y-119899464D01*
X160540000Y-119694107D01*
X160611429Y-119631607D01*
X161968571Y-118015535D02*
X160468571Y-117828035D01*
X160468571Y-117256607D01*
X160540000Y-117122678D01*
X160611429Y-117060179D01*
X160754286Y-117006607D01*
X160968571Y-117033392D01*
X161111429Y-117122679D01*
X161182857Y-117203035D01*
X161254286Y-117354822D01*
X161254286Y-117926250D01*
X161968571Y-116301249D02*
X161897143Y-116435179D01*
X161825714Y-116497678D01*
X161682857Y-116551250D01*
X161254286Y-116497679D01*
X161111429Y-116408393D01*
X161040000Y-116328036D01*
X160968571Y-116176249D01*
X160968571Y-115961964D01*
X161040000Y-115828036D01*
X161111429Y-115765536D01*
X161254286Y-115711964D01*
X161682857Y-115765535D01*
X161825714Y-115854821D01*
X161897143Y-115935179D01*
X161968571Y-116086964D01*
X161968571Y-116301249D01*
X160968571Y-115176249D02*
X161968571Y-115015535D01*
X161254286Y-114640536D01*
X161968571Y-114444106D01*
X160968571Y-114033392D01*
X161897143Y-113006607D02*
X161968571Y-113158392D01*
X161968571Y-113444106D01*
X161897143Y-113578035D01*
X161754286Y-113631607D01*
X161182857Y-113560178D01*
X161040000Y-113470892D01*
X160968571Y-113319106D01*
X160968571Y-113033392D01*
X161040000Y-112899464D01*
X161182857Y-112845892D01*
X161325714Y-112863749D01*
X161468571Y-113595892D01*
X161968571Y-112301249D02*
X160968571Y-112176249D01*
X161254286Y-112211964D02*
X161111429Y-112122679D01*
X161040000Y-112042321D01*
X160968571Y-111890535D01*
X160968571Y-111747678D01*
X161897143Y-110292322D02*
X161968571Y-110086964D01*
X161968571Y-109729821D01*
X161897143Y-109578036D01*
X161825714Y-109497678D01*
X161682857Y-109408393D01*
X161540000Y-109390536D01*
X161397143Y-109444107D01*
X161325714Y-109506607D01*
X161254286Y-109640536D01*
X161182857Y-109917321D01*
X161111429Y-110051251D01*
X161040000Y-110113750D01*
X160897143Y-110167322D01*
X160754286Y-110149465D01*
X160611429Y-110060179D01*
X160540000Y-109979822D01*
X160468571Y-109828035D01*
X160468571Y-109470893D01*
X160540000Y-109265536D01*
X160968571Y-108033393D02*
X161968571Y-108158393D01*
X160968571Y-108676250D02*
X161754286Y-108774465D01*
X161897143Y-108720894D01*
X161968571Y-108586964D01*
X161968571Y-108372679D01*
X161897143Y-108220894D01*
X161825714Y-108140536D01*
X160968571Y-107319107D02*
X162468571Y-107506607D01*
X161040000Y-107328036D02*
X160968571Y-107176250D01*
X160968571Y-106890536D01*
X161040000Y-106756608D01*
X161111429Y-106694108D01*
X161254286Y-106640536D01*
X161682857Y-106694107D01*
X161825714Y-106783393D01*
X161897143Y-106863751D01*
X161968571Y-107015536D01*
X161968571Y-107301250D01*
X161897143Y-107435179D01*
X160968571Y-105961964D02*
X162468571Y-106149464D01*
X161040000Y-105970893D02*
X160968571Y-105819107D01*
X160968571Y-105533393D01*
X161040000Y-105399465D01*
X161111429Y-105336965D01*
X161254286Y-105283393D01*
X161682857Y-105336964D01*
X161825714Y-105426250D01*
X161897143Y-105506608D01*
X161968571Y-105658393D01*
X161968571Y-105944107D01*
X161897143Y-106078036D01*
X161968571Y-104515535D02*
X161897143Y-104649465D01*
X161754286Y-104703036D01*
X160468571Y-104542321D01*
X160968571Y-103961964D02*
X161968571Y-103729821D01*
X160968571Y-103247679D02*
X161968571Y-103729821D01*
X162325714Y-103917322D01*
X162397143Y-103997679D01*
X162468571Y-104149464D01*
X161825714Y-102783393D02*
X161897143Y-102720894D01*
X161968571Y-102801250D01*
X161897143Y-102863751D01*
X161825714Y-102783393D01*
X161968571Y-102801250D01*
X161040000Y-102685179D02*
X161111429Y-102622680D01*
X161182857Y-102703036D01*
X161111429Y-102765537D01*
X161040000Y-102685179D01*
X161182857Y-102703036D01*
X122590179Y-113708571D02*
X122777679Y-112208571D01*
X123349107Y-112208571D01*
X123483036Y-112280000D01*
X123545535Y-112351429D01*
X123599107Y-112494286D01*
X123572322Y-112708571D01*
X123483035Y-112851429D01*
X123402679Y-112922857D01*
X123250892Y-112994286D01*
X122679464Y-112994286D01*
X124304465Y-113708571D02*
X124170535Y-113637143D01*
X124108036Y-113565714D01*
X124054464Y-113422857D01*
X124108035Y-112994286D01*
X124197321Y-112851429D01*
X124277678Y-112780000D01*
X124429465Y-112708571D01*
X124643750Y-112708571D01*
X124777678Y-112780000D01*
X124840178Y-112851429D01*
X124893750Y-112994286D01*
X124840179Y-113422857D01*
X124750893Y-113565714D01*
X124670535Y-113637143D01*
X124518750Y-113708571D01*
X124304465Y-113708571D01*
X125429465Y-112708571D02*
X125590179Y-113708571D01*
X125965178Y-112994286D01*
X126161608Y-113708571D01*
X126572322Y-112708571D01*
X127599107Y-113637143D02*
X127447322Y-113708571D01*
X127161608Y-113708571D01*
X127027679Y-113637143D01*
X126974107Y-113494286D01*
X127045536Y-112922857D01*
X127134822Y-112780000D01*
X127286608Y-112708571D01*
X127572322Y-112708571D01*
X127706250Y-112780000D01*
X127759822Y-112922857D01*
X127741965Y-113065714D01*
X127009822Y-113208571D01*
X128304465Y-113708571D02*
X128429465Y-112708571D01*
X128393750Y-112994286D02*
X128483035Y-112851429D01*
X128563393Y-112780000D01*
X128715179Y-112708571D01*
X128858036Y-112708571D01*
X130313392Y-113637143D02*
X130518750Y-113708571D01*
X130875893Y-113708571D01*
X131027678Y-113637143D01*
X131108036Y-113565714D01*
X131197321Y-113422857D01*
X131215178Y-113280000D01*
X131161607Y-113137143D01*
X131099107Y-113065714D01*
X130965178Y-112994286D01*
X130688393Y-112922857D01*
X130554463Y-112851429D01*
X130491964Y-112780000D01*
X130438392Y-112637143D01*
X130456249Y-112494286D01*
X130545535Y-112351429D01*
X130625892Y-112280000D01*
X130777679Y-112208571D01*
X131134821Y-112208571D01*
X131340178Y-112280000D01*
X131786607Y-112708571D02*
X131947321Y-113708571D01*
X132322320Y-112994286D01*
X132518750Y-113708571D01*
X132929464Y-112708571D01*
X133375893Y-113708571D02*
X133500893Y-112708571D01*
X133563393Y-112208571D02*
X133483035Y-112280000D01*
X133545535Y-112351429D01*
X133625892Y-112280000D01*
X133563393Y-112208571D01*
X133545535Y-112351429D01*
X134000893Y-112708571D02*
X134572322Y-112708571D01*
X134277679Y-112208571D02*
X134116964Y-113494286D01*
X134170535Y-113637143D01*
X134304465Y-113708571D01*
X134447322Y-113708571D01*
X135599107Y-113637143D02*
X135447322Y-113708571D01*
X135161608Y-113708571D01*
X135027678Y-113637143D01*
X134965179Y-113565714D01*
X134911607Y-113422857D01*
X134965178Y-112994286D01*
X135054464Y-112851429D01*
X135134821Y-112780000D01*
X135286608Y-112708571D01*
X135572322Y-112708571D01*
X135706250Y-112780000D01*
X136233036Y-113708571D02*
X136420536Y-112208571D01*
X136875893Y-113708571D02*
X136974107Y-112922857D01*
X136920535Y-112780000D01*
X136786607Y-112708571D01*
X136572322Y-112708571D01*
X136420535Y-112780000D01*
X136340178Y-112851429D01*
X137608036Y-113565714D02*
X137670535Y-113637143D01*
X137590179Y-113708571D01*
X137527678Y-113637143D01*
X137608036Y-113565714D01*
X137590179Y-113708571D01*
X137706250Y-112780000D02*
X137768749Y-112851429D01*
X137688393Y-112922857D01*
X137625892Y-112851429D01*
X137706250Y-112780000D01*
X137688393Y-112922857D01*
X119384821Y-102048571D02*
X119670535Y-102048571D01*
X119804464Y-102120000D01*
X119929464Y-102262857D01*
X119965178Y-102548571D01*
X119902678Y-103048571D01*
X119795535Y-103334286D01*
X119634821Y-103477143D01*
X119483035Y-103548571D01*
X119197321Y-103548571D01*
X119063392Y-103477143D01*
X118938392Y-103334286D01*
X118902678Y-103048571D01*
X118965178Y-102548571D01*
X119072321Y-102262857D01*
X119233035Y-102120000D01*
X119384821Y-102048571D01*
X120483036Y-103548571D02*
X120608036Y-102548571D01*
X120590178Y-102691429D02*
X120670535Y-102620000D01*
X120822322Y-102548571D01*
X121036607Y-102548571D01*
X121170535Y-102620000D01*
X121224107Y-102762857D01*
X121125893Y-103548571D01*
X121224107Y-102762857D02*
X121313393Y-102620000D01*
X121465179Y-102548571D01*
X121679464Y-102548571D01*
X121813393Y-102620000D01*
X121866964Y-102762857D01*
X121768750Y-103548571D01*
X123063392Y-103477143D02*
X122911607Y-103548571D01*
X122625893Y-103548571D01*
X122491964Y-103477143D01*
X122438392Y-103334286D01*
X122509821Y-102762857D01*
X122599107Y-102620000D01*
X122750893Y-102548571D01*
X123036607Y-102548571D01*
X123170535Y-102620000D01*
X123224107Y-102762857D01*
X123206250Y-102905714D01*
X122474107Y-103048571D01*
X124536607Y-102548571D02*
X124384821Y-103762857D01*
X124295535Y-103905714D01*
X124215178Y-103977143D01*
X124063393Y-104048571D01*
X123849107Y-104048571D01*
X123715178Y-103977143D01*
X124420535Y-103477143D02*
X124268750Y-103548571D01*
X123983036Y-103548571D01*
X123849106Y-103477143D01*
X123786607Y-103405714D01*
X123733035Y-103262857D01*
X123786606Y-102834286D01*
X123875892Y-102691429D01*
X123956249Y-102620000D01*
X124108036Y-102548571D01*
X124393750Y-102548571D01*
X124527678Y-102620000D01*
X125768750Y-103548571D02*
X125866964Y-102762857D01*
X125813392Y-102620000D01*
X125679464Y-102548571D01*
X125393750Y-102548571D01*
X125241964Y-102620000D01*
X125777678Y-103477143D02*
X125625893Y-103548571D01*
X125268750Y-103548571D01*
X125134821Y-103477143D01*
X125081249Y-103334286D01*
X125099106Y-103191429D01*
X125188393Y-103048571D01*
X125340178Y-102977143D01*
X125697321Y-102977143D01*
X125849107Y-102905714D01*
X128500893Y-103405714D02*
X128420535Y-103477143D01*
X128197321Y-103548571D01*
X128054464Y-103548571D01*
X127849107Y-103477143D01*
X127724106Y-103334286D01*
X127670535Y-103191429D01*
X127634821Y-102905714D01*
X127661606Y-102691429D01*
X127768750Y-102405714D01*
X127858035Y-102262857D01*
X128018750Y-102120000D01*
X128241964Y-102048571D01*
X128384821Y-102048571D01*
X128590178Y-102120000D01*
X128652678Y-102191429D01*
X129340179Y-103548571D02*
X129206249Y-103477143D01*
X129143750Y-103405714D01*
X129090178Y-103262857D01*
X129143749Y-102834286D01*
X129233035Y-102691429D01*
X129313392Y-102620000D01*
X129465179Y-102548571D01*
X129679464Y-102548571D01*
X129813392Y-102620000D01*
X129875892Y-102691429D01*
X129929464Y-102834286D01*
X129875893Y-103262857D01*
X129786607Y-103405714D01*
X129706249Y-103477143D01*
X129554464Y-103548571D01*
X129340179Y-103548571D01*
X130608036Y-102548571D02*
X130483036Y-103548571D01*
X130590178Y-102691429D02*
X130670535Y-102620000D01*
X130822322Y-102548571D01*
X131036607Y-102548571D01*
X131170535Y-102620000D01*
X131224107Y-102762857D01*
X131125893Y-103548571D01*
X131965179Y-102548571D02*
X131840179Y-103548571D01*
X131947321Y-102691429D02*
X132027678Y-102620000D01*
X132179465Y-102548571D01*
X132393750Y-102548571D01*
X132527678Y-102620000D01*
X132581250Y-102762857D01*
X132483036Y-103548571D01*
X133777678Y-103477143D02*
X133625893Y-103548571D01*
X133340179Y-103548571D01*
X133206250Y-103477143D01*
X133152678Y-103334286D01*
X133224107Y-102762857D01*
X133313393Y-102620000D01*
X133465179Y-102548571D01*
X133750893Y-102548571D01*
X133884821Y-102620000D01*
X133938393Y-102762857D01*
X133920536Y-102905714D01*
X133188393Y-103048571D01*
X135134821Y-103477143D02*
X134983036Y-103548571D01*
X134697322Y-103548571D01*
X134563392Y-103477143D01*
X134500893Y-103405714D01*
X134447321Y-103262857D01*
X134500892Y-102834286D01*
X134590178Y-102691429D01*
X134670535Y-102620000D01*
X134822322Y-102548571D01*
X135108036Y-102548571D01*
X135241964Y-102620000D01*
X135679464Y-102548571D02*
X136250893Y-102548571D01*
X135956250Y-102048571D02*
X135795535Y-103334286D01*
X135849106Y-103477143D01*
X135983036Y-103548571D01*
X136125893Y-103548571D01*
X136625893Y-103548571D02*
X136750893Y-102548571D01*
X136813393Y-102048571D02*
X136733035Y-102120000D01*
X136795535Y-102191429D01*
X136875892Y-102120000D01*
X136813393Y-102048571D01*
X136795535Y-102191429D01*
X137554465Y-103548571D02*
X137420535Y-103477143D01*
X137358036Y-103405714D01*
X137304464Y-103262857D01*
X137358035Y-102834286D01*
X137447321Y-102691429D01*
X137527678Y-102620000D01*
X137679465Y-102548571D01*
X137893750Y-102548571D01*
X138027678Y-102620000D01*
X138090178Y-102691429D01*
X138143750Y-102834286D01*
X138090179Y-103262857D01*
X138000893Y-103405714D01*
X137920535Y-103477143D01*
X137768750Y-103548571D01*
X137554465Y-103548571D01*
X138822322Y-102548571D02*
X138697322Y-103548571D01*
X138804464Y-102691429D02*
X138884821Y-102620000D01*
X139036608Y-102548571D01*
X139250893Y-102548571D01*
X139384821Y-102620000D01*
X139438393Y-102762857D01*
X139340179Y-103548571D01*
X139991964Y-103477143D02*
X140125893Y-103548571D01*
X140411608Y-103548571D01*
X140563393Y-103477143D01*
X140652678Y-103334286D01*
X140661607Y-103262857D01*
X140608036Y-103120000D01*
X140474108Y-103048571D01*
X140259822Y-103048571D01*
X140125893Y-102977143D01*
X140072321Y-102834286D01*
X140081250Y-102762857D01*
X140170536Y-102620000D01*
X140322322Y-102548571D01*
X140536608Y-102548571D01*
X140670536Y-102620000D01*
X141286608Y-103405714D02*
X141349107Y-103477143D01*
X141268751Y-103548571D01*
X141206250Y-103477143D01*
X141286608Y-103405714D01*
X141268751Y-103548571D01*
X141384822Y-102620000D02*
X141447321Y-102691429D01*
X141366965Y-102762857D01*
X141304464Y-102691429D01*
X141384822Y-102620000D01*
X141366965Y-102762857D01*
X141574286Y-97042857D02*
X141788572Y-97114286D01*
X141860000Y-97185714D01*
X141931429Y-97328571D01*
X141931429Y-97542857D01*
X141860000Y-97685714D01*
X141788572Y-97757143D01*
X141645714Y-97828571D01*
X141074286Y-97828571D01*
X141074286Y-96328571D01*
X141574286Y-96328571D01*
X141717143Y-96400000D01*
X141788572Y-96471429D01*
X141860000Y-96614286D01*
X141860000Y-96757143D01*
X141788572Y-96900000D01*
X141717143Y-96971429D01*
X141574286Y-97042857D01*
X141074286Y-97042857D01*
X142431429Y-96828571D02*
X142788572Y-97828571D01*
X143145714Y-96828571D02*
X142788572Y-97828571D01*
X142645714Y-98185714D01*
X142574286Y-98257143D01*
X142431429Y-98328571D01*
X143717143Y-97685714D02*
X143788571Y-97757143D01*
X143717143Y-97828571D01*
X143645714Y-97757143D01*
X143717143Y-97685714D01*
X143717143Y-97828571D01*
X143717143Y-96900000D02*
X143788571Y-96971429D01*
X143717143Y-97042857D01*
X143645714Y-96971429D01*
X143717143Y-96900000D01*
X143717143Y-97042857D01*
X145502857Y-97757143D02*
X145717143Y-97828571D01*
X146074286Y-97828571D01*
X146217143Y-97757143D01*
X146288572Y-97685714D01*
X146360000Y-97542857D01*
X146360000Y-97400000D01*
X146288572Y-97257143D01*
X146217143Y-97185714D01*
X146074286Y-97114286D01*
X145788572Y-97042857D01*
X145645714Y-96971429D01*
X145574286Y-96900000D01*
X145502857Y-96757143D01*
X145502857Y-96614286D01*
X145574286Y-96471429D01*
X145645714Y-96400000D01*
X145788572Y-96328571D01*
X146145714Y-96328571D01*
X146360000Y-96400000D01*
X147002857Y-97828571D02*
X147002857Y-96328571D01*
X147645714Y-97828571D02*
X147645714Y-97042857D01*
X147574285Y-96900000D01*
X147431428Y-96828571D01*
X147217143Y-96828571D01*
X147074285Y-96900000D01*
X147002857Y-96971429D01*
X148360000Y-97828571D02*
X148360000Y-96828571D01*
X148360000Y-96328571D02*
X148288571Y-96400000D01*
X148360000Y-96471429D01*
X148431428Y-96400000D01*
X148360000Y-96328571D01*
X148360000Y-96471429D01*
X148931429Y-96828571D02*
X149288572Y-97828571D01*
X149645714Y-96828571D01*
X150860000Y-97828571D02*
X150860000Y-97042857D01*
X150788571Y-96900000D01*
X150645714Y-96828571D01*
X150360000Y-96828571D01*
X150217143Y-96900000D01*
X150860000Y-97757143D02*
X150717143Y-97828571D01*
X150360000Y-97828571D01*
X150217143Y-97757143D01*
X150145714Y-97614286D01*
X150145714Y-97471429D01*
X150217143Y-97328571D01*
X150360000Y-97257143D01*
X150717143Y-97257143D01*
X150860000Y-97185714D01*
X151574286Y-96828571D02*
X151574286Y-97828571D01*
X151574286Y-96971429D02*
X151645714Y-96900000D01*
X151788572Y-96828571D01*
X152002857Y-96828571D01*
X152145714Y-96900000D01*
X152217143Y-97042857D01*
X152217143Y-97828571D01*
X152860000Y-97757143D02*
X153002857Y-97828571D01*
X153288572Y-97828571D01*
X153431429Y-97757143D01*
X153502857Y-97614286D01*
X153502857Y-97542857D01*
X153431429Y-97400000D01*
X153288572Y-97328571D01*
X153074286Y-97328571D01*
X152931429Y-97257143D01*
X152860000Y-97114286D01*
X152860000Y-97042857D01*
X152931429Y-96900000D01*
X153074286Y-96828571D01*
X153288572Y-96828571D01*
X153431429Y-96900000D01*
X154145715Y-97828571D02*
X154145715Y-96328571D01*
X154788572Y-97828571D02*
X154788572Y-97042857D01*
X154717143Y-96900000D01*
X154574286Y-96828571D01*
X154360001Y-96828571D01*
X154217143Y-96900000D01*
X154145715Y-96971429D01*
X156431429Y-96328571D02*
X156931429Y-97828571D01*
X157431429Y-96328571D01*
X157931429Y-97828571D02*
X157931429Y-96828571D01*
X157931429Y-96328571D02*
X157860000Y-96400000D01*
X157931429Y-96471429D01*
X158002857Y-96400000D01*
X157931429Y-96328571D01*
X157931429Y-96471429D01*
X158645715Y-96828571D02*
X158645715Y-98114286D01*
X158574286Y-98257143D01*
X158431429Y-98328571D01*
X158360001Y-98328571D01*
X158645715Y-96328571D02*
X158574286Y-96400000D01*
X158645715Y-96471429D01*
X158717143Y-96400000D01*
X158645715Y-96328571D01*
X158645715Y-96471429D01*
X140110000Y-98878571D02*
X140395714Y-98878571D01*
X140538572Y-98950000D01*
X140681429Y-99092857D01*
X140752857Y-99378571D01*
X140752857Y-99878571D01*
X140681429Y-100164286D01*
X140538572Y-100307143D01*
X140395714Y-100378571D01*
X140110000Y-100378571D01*
X139967143Y-100307143D01*
X139824286Y-100164286D01*
X139752857Y-99878571D01*
X139752857Y-99378571D01*
X139824286Y-99092857D01*
X139967143Y-98950000D01*
X140110000Y-98878571D01*
X141395715Y-100378571D02*
X141395715Y-98878571D01*
X141895715Y-99950000D01*
X142395715Y-98878571D01*
X142395715Y-100378571D01*
X143110001Y-99592857D02*
X143610001Y-99592857D01*
X143824287Y-100378571D02*
X143110001Y-100378571D01*
X143110001Y-98878571D01*
X143824287Y-98878571D01*
X145252858Y-98950000D02*
X145110001Y-98878571D01*
X144895715Y-98878571D01*
X144681430Y-98950000D01*
X144538572Y-99092857D01*
X144467144Y-99235714D01*
X144395715Y-99521429D01*
X144395715Y-99735714D01*
X144467144Y-100021429D01*
X144538572Y-100164286D01*
X144681430Y-100307143D01*
X144895715Y-100378571D01*
X145038572Y-100378571D01*
X145252858Y-100307143D01*
X145324287Y-100235714D01*
X145324287Y-99735714D01*
X145038572Y-99735714D01*
X145895715Y-99950000D02*
X146610001Y-99950000D01*
X145752858Y-100378571D02*
X146252858Y-98878571D01*
X146752858Y-100378571D01*
X147181429Y-99021429D02*
X147252858Y-98950000D01*
X147395715Y-98878571D01*
X147752858Y-98878571D01*
X147895715Y-98950000D01*
X147967144Y-99021429D01*
X148038572Y-99164286D01*
X148038572Y-99307143D01*
X147967144Y-99521429D01*
X147110001Y-100378571D01*
X148038572Y-100378571D01*
X149824286Y-100378571D02*
X149824286Y-98878571D01*
X150181429Y-98878571D01*
X150395714Y-98950000D01*
X150538572Y-99092857D01*
X150610000Y-99235714D01*
X150681429Y-99521429D01*
X150681429Y-99735714D01*
X150610000Y-100021429D01*
X150538572Y-100164286D01*
X150395714Y-100307143D01*
X150181429Y-100378571D01*
X149824286Y-100378571D01*
X152181429Y-100235714D02*
X152110000Y-100307143D01*
X151895714Y-100378571D01*
X151752857Y-100378571D01*
X151538572Y-100307143D01*
X151395714Y-100164286D01*
X151324286Y-100021429D01*
X151252857Y-99735714D01*
X151252857Y-99521429D01*
X151324286Y-99235714D01*
X151395714Y-99092857D01*
X151538572Y-98950000D01*
X151752857Y-98878571D01*
X151895714Y-98878571D01*
X152110000Y-98950000D01*
X152181429Y-99021429D01*
X153967143Y-100378571D02*
X153967143Y-98878571D01*
X154538571Y-98878571D01*
X154681429Y-98950000D01*
X154752857Y-99021429D01*
X154824286Y-99164286D01*
X154824286Y-99378571D01*
X154752857Y-99521429D01*
X154681429Y-99592857D01*
X154538571Y-99664286D01*
X153967143Y-99664286D01*
X155681429Y-100378571D02*
X155538571Y-100307143D01*
X155467143Y-100235714D01*
X155395714Y-100092857D01*
X155395714Y-99664286D01*
X155467143Y-99521429D01*
X155538571Y-99450000D01*
X155681429Y-99378571D01*
X155895714Y-99378571D01*
X156038571Y-99450000D01*
X156110000Y-99521429D01*
X156181429Y-99664286D01*
X156181429Y-100092857D01*
X156110000Y-100235714D01*
X156038571Y-100307143D01*
X155895714Y-100378571D01*
X155681429Y-100378571D01*
X156681429Y-99378571D02*
X156967143Y-100378571D01*
X157252857Y-99664286D01*
X157538572Y-100378571D01*
X157824286Y-99378571D01*
X158967143Y-100307143D02*
X158824286Y-100378571D01*
X158538572Y-100378571D01*
X158395715Y-100307143D01*
X158324286Y-100164286D01*
X158324286Y-99592857D01*
X158395715Y-99450000D01*
X158538572Y-99378571D01*
X158824286Y-99378571D01*
X158967143Y-99450000D01*
X159038572Y-99592857D01*
X159038572Y-99735714D01*
X158324286Y-99878571D01*
X159681429Y-100378571D02*
X159681429Y-99378571D01*
X159681429Y-99664286D02*
X159752857Y-99521429D01*
X159824286Y-99450000D01*
X159967143Y-99378571D01*
X160110000Y-99378571D01*
D12*
X133290000Y-108585000D02*
X133290000Y-108645000D01*
X133290000Y-108645000D02*
X135950000Y-108645000D01*
X135950000Y-108645000D02*
X135950000Y-108585000D01*
X135950000Y-108585000D02*
X133290000Y-108585000D01*
X133290000Y-107315000D02*
X133290000Y-105985000D01*
X133290000Y-105985000D02*
X134620000Y-105985000D01*
X124400000Y-108585000D02*
X124400000Y-108645000D01*
X124400000Y-108645000D02*
X127060000Y-108645000D01*
X127060000Y-108645000D02*
X127060000Y-108585000D01*
X127060000Y-108585000D02*
X124400000Y-108585000D01*
X124400000Y-107315000D02*
X124400000Y-105985000D01*
X124400000Y-105985000D02*
X125730000Y-105985000D01*
X131445000Y-116780000D02*
X126305000Y-116780000D01*
X126305000Y-116780000D02*
X126305000Y-119440000D01*
X126305000Y-119440000D02*
X131445000Y-119440000D01*
X131445000Y-119440000D02*
X131445000Y-116780000D01*
X132715000Y-116780000D02*
X134045000Y-116780000D01*
X134045000Y-116780000D02*
X134045000Y-118110000D01*
X147260000Y-108585000D02*
X147260000Y-113725000D01*
X147260000Y-113725000D02*
X149920000Y-113725000D01*
X149920000Y-113725000D02*
X149920000Y-108585000D01*
X149920000Y-108585000D02*
X147260000Y-108585000D01*
X147260000Y-107315000D02*
X147260000Y-105985000D01*
X147260000Y-105985000D02*
X148590000Y-105985000D01*
D13*
X168997381Y-123538572D02*
X169997381Y-123205239D01*
X168997381Y-122871905D01*
X169997381Y-122395715D02*
X169949762Y-122490953D01*
X169902143Y-122538572D01*
X169806905Y-122586191D01*
X169521190Y-122586191D01*
X169425952Y-122538572D01*
X169378333Y-122490953D01*
X169330714Y-122395715D01*
X169330714Y-122252857D01*
X169378333Y-122157619D01*
X169425952Y-122110000D01*
X169521190Y-122062381D01*
X169806905Y-122062381D01*
X169902143Y-122110000D01*
X169949762Y-122157619D01*
X169997381Y-122252857D01*
X169997381Y-122395715D01*
X169997381Y-121490953D02*
X169949762Y-121586191D01*
X169854524Y-121633810D01*
X168997381Y-121633810D01*
X169330714Y-121252857D02*
X169330714Y-120871905D01*
X168997381Y-121110000D02*
X169854524Y-121110000D01*
X169949762Y-121062381D01*
X169997381Y-120967143D01*
X169997381Y-120871905D01*
X169997381Y-120109999D02*
X169473571Y-120109999D01*
X169378333Y-120157618D01*
X169330714Y-120252856D01*
X169330714Y-120443333D01*
X169378333Y-120538571D01*
X169949762Y-120109999D02*
X169997381Y-120205237D01*
X169997381Y-120443333D01*
X169949762Y-120538571D01*
X169854524Y-120586190D01*
X169759286Y-120586190D01*
X169664048Y-120538571D01*
X169616429Y-120443333D01*
X169616429Y-120205237D01*
X169568810Y-120109999D01*
X169330714Y-119205237D02*
X170140238Y-119205237D01*
X170235476Y-119252856D01*
X170283095Y-119300475D01*
X170330714Y-119395714D01*
X170330714Y-119538571D01*
X170283095Y-119633809D01*
X169949762Y-119205237D02*
X169997381Y-119300475D01*
X169997381Y-119490952D01*
X169949762Y-119586190D01*
X169902143Y-119633809D01*
X169806905Y-119681428D01*
X169521190Y-119681428D01*
X169425952Y-119633809D01*
X169378333Y-119586190D01*
X169330714Y-119490952D01*
X169330714Y-119300475D01*
X169378333Y-119205237D01*
X169949762Y-118348094D02*
X169997381Y-118443332D01*
X169997381Y-118633809D01*
X169949762Y-118729047D01*
X169854524Y-118776666D01*
X169473571Y-118776666D01*
X169378333Y-118729047D01*
X169330714Y-118633809D01*
X169330714Y-118443332D01*
X169378333Y-118348094D01*
X169473571Y-118300475D01*
X169568810Y-118300475D01*
X169664048Y-118776666D01*
X169997381Y-117109999D02*
X168997381Y-117109999D01*
X169997381Y-116633809D02*
X168997381Y-116633809D01*
X169997381Y-116062380D01*
X168997381Y-116062380D01*
X170378333Y-114538570D02*
X170330714Y-114586190D01*
X170187857Y-114681428D01*
X170092619Y-114729047D01*
X169949762Y-114776666D01*
X169711667Y-114824285D01*
X169521190Y-114824285D01*
X169283095Y-114776666D01*
X169140238Y-114729047D01*
X169045000Y-114681428D01*
X168902143Y-114586190D01*
X168854524Y-114538570D01*
X168997381Y-114252856D02*
X169997381Y-114014761D01*
X169283095Y-113824284D01*
X169997381Y-113633808D01*
X168997381Y-113395713D01*
X170378333Y-113109999D02*
X170330714Y-113062380D01*
X170187857Y-112967142D01*
X170092619Y-112919523D01*
X169949762Y-112871904D01*
X169711667Y-112824285D01*
X169521190Y-112824285D01*
X169283095Y-112871904D01*
X169140238Y-112919523D01*
X169045000Y-112967142D01*
X168902143Y-113062380D01*
X168854524Y-113109999D01*
X133858096Y-109355000D02*
X133762858Y-109307381D01*
X133620001Y-109307381D01*
X133477143Y-109355000D01*
X133381905Y-109450238D01*
X133334286Y-109545476D01*
X133286667Y-109735952D01*
X133286667Y-109878810D01*
X133334286Y-110069286D01*
X133381905Y-110164524D01*
X133477143Y-110259762D01*
X133620001Y-110307381D01*
X133715239Y-110307381D01*
X133858096Y-110259762D01*
X133905715Y-110212143D01*
X133905715Y-109878810D01*
X133715239Y-109878810D01*
X134334286Y-110307381D02*
X134334286Y-109307381D01*
X134905715Y-110307381D01*
X134905715Y-109307381D01*
X135381905Y-110307381D02*
X135381905Y-109307381D01*
X135620000Y-109307381D01*
X135762858Y-109355000D01*
X135858096Y-109450238D01*
X135905715Y-109545476D01*
X135953334Y-109735952D01*
X135953334Y-109878810D01*
X135905715Y-110069286D01*
X135858096Y-110164524D01*
X135762858Y-110259762D01*
X135620000Y-110307381D01*
X135381905Y-110307381D01*
X122015714Y-109307381D02*
X122634762Y-109307381D01*
X122301428Y-109688333D01*
X122444286Y-109688333D01*
X122539524Y-109735952D01*
X122587143Y-109783571D01*
X122634762Y-109878810D01*
X122634762Y-110116905D01*
X122587143Y-110212143D01*
X122539524Y-110259762D01*
X122444286Y-110307381D01*
X122158571Y-110307381D01*
X122063333Y-110259762D01*
X122015714Y-110212143D01*
X123063333Y-110212143D02*
X123110952Y-110259762D01*
X123063333Y-110307381D01*
X123015714Y-110259762D01*
X123063333Y-110212143D01*
X123063333Y-110307381D01*
X123444285Y-109307381D02*
X124063333Y-109307381D01*
X123729999Y-109688333D01*
X123872857Y-109688333D01*
X123968095Y-109735952D01*
X124015714Y-109783571D01*
X124063333Y-109878810D01*
X124063333Y-110116905D01*
X124015714Y-110212143D01*
X123968095Y-110259762D01*
X123872857Y-110307381D01*
X123587142Y-110307381D01*
X123491904Y-110259762D01*
X123444285Y-110212143D01*
X124349047Y-109307381D02*
X124682380Y-110307381D01*
X125015714Y-109307381D01*
X126396667Y-110688333D02*
X126349047Y-110640714D01*
X126253809Y-110497857D01*
X126206190Y-110402619D01*
X126158571Y-110259762D01*
X126110952Y-110021667D01*
X126110952Y-109831190D01*
X126158571Y-109593095D01*
X126206190Y-109450238D01*
X126253809Y-109355000D01*
X126349047Y-109212143D01*
X126396667Y-109164524D01*
X126634762Y-109307381D02*
X126968095Y-110307381D01*
X127301429Y-109307381D01*
X127634762Y-110307381D02*
X127634762Y-109307381D01*
X128110952Y-110307381D02*
X128110952Y-109307381D01*
X128682381Y-110307381D01*
X128682381Y-109307381D01*
X129063333Y-110688333D02*
X129110952Y-110640714D01*
X129206190Y-110497857D01*
X129253809Y-110402619D01*
X129301428Y-110259762D01*
X129349047Y-110021667D01*
X129349047Y-109831190D01*
X129301428Y-109593095D01*
X129253809Y-109450238D01*
X129206190Y-109355000D01*
X129110952Y-109212143D01*
X129063333Y-109164524D01*
X169045000Y-109624524D02*
X168997381Y-109719762D01*
X168997381Y-109862619D01*
X169045000Y-110005477D01*
X169140238Y-110100715D01*
X169235476Y-110148334D01*
X169425952Y-110195953D01*
X169568810Y-110195953D01*
X169759286Y-110148334D01*
X169854524Y-110100715D01*
X169949762Y-110005477D01*
X169997381Y-109862619D01*
X169997381Y-109767381D01*
X169949762Y-109624524D01*
X169902143Y-109576905D01*
X169568810Y-109576905D01*
X169568810Y-109767381D01*
X169997381Y-109148334D02*
X168997381Y-109148334D01*
X169997381Y-108576905D01*
X168997381Y-108576905D01*
X169997381Y-108100715D02*
X168997381Y-108100715D01*
X168997381Y-107862620D01*
X169045000Y-107719762D01*
X169140238Y-107624524D01*
X169235476Y-107576905D01*
X169425952Y-107529286D01*
X169568810Y-107529286D01*
X169759286Y-107576905D01*
X169854524Y-107624524D01*
X169949762Y-107719762D01*
X169997381Y-107862620D01*
X169997381Y-108100715D01*
X170378333Y-106053095D02*
X170330714Y-106100715D01*
X170187857Y-106195953D01*
X170092619Y-106243572D01*
X169949762Y-106291191D01*
X169711667Y-106338810D01*
X169521190Y-106338810D01*
X169283095Y-106291191D01*
X169140238Y-106243572D01*
X169045000Y-106195953D01*
X168902143Y-106100715D01*
X168854524Y-106053095D01*
X169473571Y-105338809D02*
X169521190Y-105195952D01*
X169568810Y-105148333D01*
X169664048Y-105100714D01*
X169806905Y-105100714D01*
X169902143Y-105148333D01*
X169949762Y-105195952D01*
X169997381Y-105291190D01*
X169997381Y-105672143D01*
X168997381Y-105672143D01*
X168997381Y-105338809D01*
X169045000Y-105243571D01*
X169092619Y-105195952D01*
X169187857Y-105148333D01*
X169283095Y-105148333D01*
X169378333Y-105195952D01*
X169425952Y-105243571D01*
X169473571Y-105338809D01*
X169473571Y-105672143D01*
X170378333Y-104767381D02*
X170330714Y-104719762D01*
X170187857Y-104624524D01*
X170092619Y-104576905D01*
X169949762Y-104529286D01*
X169711667Y-104481667D01*
X169521190Y-104481667D01*
X169283095Y-104529286D01*
X169140238Y-104576905D01*
X169045000Y-104624524D01*
X168902143Y-104719762D01*
X168854524Y-104767381D01*
X124865476Y-120102381D02*
X125055953Y-120102381D01*
X125151191Y-120150000D01*
X125246429Y-120245238D01*
X125294048Y-120435714D01*
X125294048Y-120769048D01*
X125246429Y-120959524D01*
X125151191Y-121054762D01*
X125055953Y-121102381D01*
X124865476Y-121102381D01*
X124770238Y-121054762D01*
X124675000Y-120959524D01*
X124627381Y-120769048D01*
X124627381Y-120435714D01*
X124675000Y-120245238D01*
X124770238Y-120150000D01*
X124865476Y-120102381D01*
X125722619Y-121102381D02*
X125722619Y-120102381D01*
X126294048Y-121102381D01*
X126294048Y-120102381D01*
X127484524Y-120054762D02*
X126627381Y-121340476D01*
X128008333Y-120102381D02*
X128198810Y-120102381D01*
X128294048Y-120150000D01*
X128389286Y-120245238D01*
X128436905Y-120435714D01*
X128436905Y-120769048D01*
X128389286Y-120959524D01*
X128294048Y-121054762D01*
X128198810Y-121102381D01*
X128008333Y-121102381D01*
X127913095Y-121054762D01*
X127817857Y-120959524D01*
X127770238Y-120769048D01*
X127770238Y-120435714D01*
X127817857Y-120245238D01*
X127913095Y-120150000D01*
X128008333Y-120102381D01*
X129198810Y-120578571D02*
X128865476Y-120578571D01*
X128865476Y-121102381D02*
X128865476Y-120102381D01*
X129341667Y-120102381D01*
X130055953Y-120578571D02*
X129722619Y-120578571D01*
X129722619Y-121102381D02*
X129722619Y-120102381D01*
X130198810Y-120102381D01*
X131294048Y-121054762D02*
X131436905Y-121102381D01*
X131675001Y-121102381D01*
X131770239Y-121054762D01*
X131817858Y-121007143D01*
X131865477Y-120911905D01*
X131865477Y-120816667D01*
X131817858Y-120721429D01*
X131770239Y-120673810D01*
X131675001Y-120626190D01*
X131484524Y-120578571D01*
X131389286Y-120530952D01*
X131341667Y-120483333D01*
X131294048Y-120388095D01*
X131294048Y-120292857D01*
X131341667Y-120197619D01*
X131389286Y-120150000D01*
X131484524Y-120102381D01*
X131722620Y-120102381D01*
X131865477Y-120150000D01*
X132198810Y-120435714D02*
X132389286Y-121102381D01*
X132579763Y-120626190D01*
X132770239Y-121102381D01*
X132960715Y-120435714D01*
X133341667Y-121102381D02*
X133341667Y-120435714D01*
X133341667Y-120102381D02*
X133294048Y-120150000D01*
X133341667Y-120197619D01*
X133389286Y-120150000D01*
X133341667Y-120102381D01*
X133341667Y-120197619D01*
X133675000Y-120435714D02*
X134055952Y-120435714D01*
X133817857Y-120102381D02*
X133817857Y-120959524D01*
X133865476Y-121054762D01*
X133960714Y-121102381D01*
X134055952Y-121102381D01*
X134817858Y-121054762D02*
X134722620Y-121102381D01*
X134532143Y-121102381D01*
X134436905Y-121054762D01*
X134389286Y-121007143D01*
X134341667Y-120911905D01*
X134341667Y-120626190D01*
X134389286Y-120530952D01*
X134436905Y-120483333D01*
X134532143Y-120435714D01*
X134722620Y-120435714D01*
X134817858Y-120483333D01*
X135246429Y-121102381D02*
X135246429Y-120102381D01*
X135675001Y-121102381D02*
X135675001Y-120578571D01*
X135627382Y-120483333D01*
X135532144Y-120435714D01*
X135389286Y-120435714D01*
X135294048Y-120483333D01*
X135246429Y-120530952D01*
X140518571Y-115387381D02*
X140042380Y-115387381D01*
X140042380Y-114387381D01*
X140851904Y-115387381D02*
X140851904Y-114387381D01*
X141089999Y-114387381D01*
X141232857Y-114435000D01*
X141328095Y-114530238D01*
X141375714Y-114625476D01*
X141423333Y-114815952D01*
X141423333Y-114958810D01*
X141375714Y-115149286D01*
X141328095Y-115244524D01*
X141232857Y-115339762D01*
X141089999Y-115387381D01*
X140851904Y-115387381D01*
X142375714Y-115387381D02*
X141804285Y-115387381D01*
X142089999Y-115387381D02*
X142089999Y-114387381D01*
X141994761Y-114530238D01*
X141899523Y-114625476D01*
X141804285Y-114673095D01*
X143328095Y-115387381D02*
X142756666Y-115387381D01*
X143042380Y-115387381D02*
X143042380Y-114387381D01*
X142947142Y-114530238D01*
X142851904Y-114625476D01*
X142756666Y-114673095D01*
X144280476Y-115387381D02*
X143709047Y-115387381D01*
X143994761Y-115387381D02*
X143994761Y-114387381D01*
X143899523Y-114530238D01*
X143804285Y-114625476D01*
X143709047Y-114673095D01*
X144613809Y-114387381D02*
X145280476Y-114387381D01*
X144851904Y-115387381D01*
X146328095Y-114387381D02*
X146947143Y-114387381D01*
X146613809Y-114768333D01*
X146756667Y-114768333D01*
X146851905Y-114815952D01*
X146899524Y-114863571D01*
X146947143Y-114958810D01*
X146947143Y-115196905D01*
X146899524Y-115292143D01*
X146851905Y-115339762D01*
X146756667Y-115387381D01*
X146470952Y-115387381D01*
X146375714Y-115339762D01*
X146328095Y-115292143D01*
X147375714Y-115292143D02*
X147423333Y-115339762D01*
X147375714Y-115387381D01*
X147328095Y-115339762D01*
X147375714Y-115292143D01*
X147375714Y-115387381D01*
X147756666Y-114387381D02*
X148375714Y-114387381D01*
X148042380Y-114768333D01*
X148185238Y-114768333D01*
X148280476Y-114815952D01*
X148328095Y-114863571D01*
X148375714Y-114958810D01*
X148375714Y-115196905D01*
X148328095Y-115292143D01*
X148280476Y-115339762D01*
X148185238Y-115387381D01*
X147899523Y-115387381D01*
X147804285Y-115339762D01*
X147756666Y-115292143D01*
X148661428Y-114387381D02*
X148994761Y-115387381D01*
X149328095Y-114387381D01*
X150994762Y-115387381D02*
X150661428Y-114911190D01*
X150423333Y-115387381D02*
X150423333Y-114387381D01*
X150804286Y-114387381D01*
X150899524Y-114435000D01*
X150947143Y-114482619D01*
X150994762Y-114577857D01*
X150994762Y-114720714D01*
X150947143Y-114815952D01*
X150899524Y-114863571D01*
X150804286Y-114911190D01*
X150423333Y-114911190D01*
X151804286Y-115339762D02*
X151709048Y-115387381D01*
X151518571Y-115387381D01*
X151423333Y-115339762D01*
X151375714Y-115244524D01*
X151375714Y-114863571D01*
X151423333Y-114768333D01*
X151518571Y-114720714D01*
X151709048Y-114720714D01*
X151804286Y-114768333D01*
X151851905Y-114863571D01*
X151851905Y-114958810D01*
X151375714Y-115054048D01*
X152709048Y-114720714D02*
X152709048Y-115530238D01*
X152661429Y-115625476D01*
X152613810Y-115673095D01*
X152518571Y-115720714D01*
X152375714Y-115720714D01*
X152280476Y-115673095D01*
X152709048Y-115339762D02*
X152613810Y-115387381D01*
X152423333Y-115387381D01*
X152328095Y-115339762D01*
X152280476Y-115292143D01*
X152232857Y-115196905D01*
X152232857Y-114911190D01*
X152280476Y-114815952D01*
X152328095Y-114768333D01*
X152423333Y-114720714D01*
X152613810Y-114720714D01*
X152709048Y-114768333D01*
X153613810Y-114720714D02*
X153613810Y-115387381D01*
X153185238Y-114720714D02*
X153185238Y-115244524D01*
X153232857Y-115339762D01*
X153328095Y-115387381D01*
X153470953Y-115387381D01*
X153566191Y-115339762D01*
X153613810Y-115292143D01*
X154232857Y-115387381D02*
X154137619Y-115339762D01*
X154090000Y-115244524D01*
X154090000Y-114387381D01*
X155042382Y-115387381D02*
X155042382Y-114863571D01*
X154994763Y-114768333D01*
X154899525Y-114720714D01*
X154709048Y-114720714D01*
X154613810Y-114768333D01*
X155042382Y-115339762D02*
X154947144Y-115387381D01*
X154709048Y-115387381D01*
X154613810Y-115339762D01*
X154566191Y-115244524D01*
X154566191Y-115149286D01*
X154613810Y-115054048D01*
X154709048Y-115006429D01*
X154947144Y-115006429D01*
X155042382Y-114958810D01*
X155375715Y-114720714D02*
X155756667Y-114720714D01*
X155518572Y-114387381D02*
X155518572Y-115244524D01*
X155566191Y-115339762D01*
X155661429Y-115387381D01*
X155756667Y-115387381D01*
X156232858Y-115387381D02*
X156137620Y-115339762D01*
X156090001Y-115292143D01*
X156042382Y-115196905D01*
X156042382Y-114911190D01*
X156090001Y-114815952D01*
X156137620Y-114768333D01*
X156232858Y-114720714D01*
X156375716Y-114720714D01*
X156470954Y-114768333D01*
X156518573Y-114815952D01*
X156566192Y-114911190D01*
X156566192Y-115196905D01*
X156518573Y-115292143D01*
X156470954Y-115339762D01*
X156375716Y-115387381D01*
X156232858Y-115387381D01*
X156994763Y-115387381D02*
X156994763Y-114720714D01*
X156994763Y-114911190D02*
X157042382Y-114815952D01*
X157090001Y-114768333D01*
X157185239Y-114720714D01*
X157280478Y-114720714D01*
M02*
